<svg xmlns="http://www.w3.org/2000/svg" viewBox="0 0 100 100">
  <defs>
    <clipPath id="c">
      <circle cx="50" cy="50" r="44"/>
    </clipPath>
  </defs>
  <circle cx="50" cy="50" r="49" fill="#1a7a1a"/>
  <g clip-path="url(#c)">
    <rect width="100" height="100" fill="#2e8b1a"/>
    <polygon points="15,0 100,0 100,85" fill="#76c442"/>
    <polygon points="35,0 100,0 100,65" fill="#f5d800"/>
    <polygon points="60,0 100,0 100,40" fill="#6b21a8"/>
    <polygon points="0,60 40,100 0,100" fill="#6b21a8"/>
    <polygon points="0,35 65,100 40,100 0,60" fill="#f5d800"/>
  </g>
  <g clip-path="url(#c)" fill="white">
    <polygon points="28,65 36,65 36,50 32,38 28,50"/>
    <polygon points="23,52 32,36 41,52"/>
    <polygon points="48,65 56,65 56,50 52,38 48,50"/>
    <polygon points="43,52 52,36 61,52"/>
  </g>
</svg>
